<svg xmlns="http://www.w3.org/2000/svg" xmlns:xlink="http://www.w3.org/1999/xlink" preserveAspectRatio="xMidYMid" width="23.781" height="20.938" viewBox="0 0 23.781 20.938">
  <defs>
    <style>
      .cls-1 {
        fill: #1b1b1b;
        fill-rule: evenodd;
      }
    </style>
  </defs>
  <path d="M23.742,20.002 C23.711,20.531 23.275,20.940 22.755,20.940 C22.737,20.940 22.718,20.940 22.699,20.939 C22.155,20.908 21.738,20.440 21.766,19.891 C21.769,19.807 21.831,17.660 20.027,15.770 C18.341,14.002 15.591,13.046 11.870,12.902 L11.870,16.952 C11.870,17.335 11.652,17.685 11.309,17.851 C11.173,17.916 11.027,17.949 10.881,17.949 C10.660,17.949 10.441,17.874 10.263,17.730 L0.368,9.753 C0.133,9.564 -0.004,9.278 -0.004,8.975 C-0.004,8.672 0.133,8.385 0.368,8.196 L10.263,0.219 C10.560,-0.020 10.968,-0.066 11.309,0.099 C11.652,0.265 11.870,0.615 11.870,0.998 L11.870,5.121 C13.675,5.275 17.518,5.957 20.382,8.951 C22.887,11.568 24.018,15.286 23.742,20.002 ZM18.971,10.348 C15.795,7.017 10.945,7.056 10.901,7.071 C10.897,7.071 10.894,7.069 10.891,7.069 C10.887,7.069 10.884,7.071 10.881,7.071 C10.861,7.071 10.847,7.058 10.828,7.057 C10.319,7.018 9.903,6.618 9.893,6.094 C9.889,5.911 9.948,5.747 10.031,5.597 L10.031,2.938 L2.570,8.975 L10.031,14.938 L10.031,12.356 C9.950,12.211 9.891,12.053 9.891,11.875 C9.891,11.324 10.334,10.878 10.881,10.878 C15.463,10.878 18.914,11.956 21.150,14.084 C20.677,12.624 19.950,11.376 18.971,10.348 Z" class="cls-1"/>
</svg>
