<svg xmlns="http://www.w3.org/2000/svg" xmlns:xlink="http://www.w3.org/1999/xlink" preserveAspectRatio="xMidYMid" width="19.876" height="24" viewBox="0 0 19.876 24">
  <defs>
    <style>
      .cls-1 {
        fill: #1b1b1b;
        fill-rule: evenodd;
      }
    </style>
  </defs>
  <path d="M19.632,19.263 C19.344,19.731 18.828,20.000 18.216,20.000 L13.893,20.000 C13.893,22.206 12.110,24.000 9.918,24.000 C7.727,24.000 5.945,22.206 5.945,20.000 L1.624,20.000 C1.012,20.000 0.496,19.731 0.208,19.263 C-0.079,18.794 -0.087,18.209 0.186,17.658 L2.967,12.736 L2.967,7.000 C2.967,3.140 6.086,-0.000 9.918,-0.000 C13.753,-0.000 16.872,3.140 16.872,7.000 L16.872,12.735 L19.628,17.611 C19.927,18.209 19.919,18.794 19.632,19.263 ZM9.918,22.000 C11.014,22.000 11.906,21.103 11.906,20.000 L7.931,20.000 C7.931,21.103 8.823,22.000 9.918,22.000 ZM15.016,13.495 C15.006,13.477 15.007,13.458 14.998,13.440 C14.968,13.381 14.953,13.317 14.936,13.251 C14.919,13.185 14.901,13.122 14.897,13.056 C14.896,13.036 14.886,13.020 14.886,13.000 L14.886,7.000 C14.886,4.243 12.657,2.000 9.918,2.000 C7.181,2.000 4.954,4.243 4.954,7.000 L4.954,13.000 C4.954,13.020 4.944,13.036 4.942,13.056 C4.939,13.122 4.921,13.185 4.903,13.251 C4.886,13.317 4.871,13.381 4.841,13.441 C4.833,13.458 4.833,13.477 4.824,13.495 L2.278,18.000 L17.563,18.000 L15.016,13.495 Z" class="cls-1"/>
</svg>
