<svg xmlns="http://www.w3.org/2000/svg" xmlns:xlink="http://www.w3.org/1999/xlink" preserveAspectRatio="xMidYMid" width="24" height="22" viewBox="0 0 24 22">
  <defs>
    <style>
      .cls-1 {
        fill: #1b1b1b;
        fill-rule: evenodd;
      }
    </style>
  </defs>
  <path d="M20.501,18.017 C20.752,19.503 21.557,20.147 21.595,20.176 C21.917,20.423 22.065,20.844 21.959,21.234 C21.854,21.625 21.529,21.919 21.127,21.970 C21.093,21.974 20.874,22.001 20.532,22.001 C19.505,22.001 17.369,21.745 15.757,19.980 L14.498,19.980 C12.688,19.980 10.976,19.597 9.548,18.873 C9.055,18.623 8.858,18.022 9.108,17.530 C9.356,17.038 9.961,16.841 10.452,17.091 C11.602,17.674 13.002,17.982 14.500,17.982 L16.199,17.982 C16.222,17.982 16.241,17.993 16.263,17.995 C16.333,17.999 16.397,18.017 16.464,18.035 C16.525,18.052 16.584,18.067 16.640,18.095 C16.694,18.121 16.740,18.159 16.789,18.195 C16.845,18.238 16.899,18.279 16.946,18.333 C16.960,18.350 16.981,18.358 16.994,18.375 C17.559,19.114 18.268,19.523 18.924,19.746 C18.690,19.189 18.513,18.503 18.452,17.694 C18.450,17.681 18.448,17.669 18.446,17.656 C18.445,17.634 18.439,17.616 18.438,17.594 C18.435,17.546 18.453,17.504 18.457,17.457 C18.462,17.386 18.465,17.317 18.485,17.249 C18.504,17.186 18.536,17.132 18.566,17.075 C18.596,17.019 18.621,16.964 18.661,16.914 C18.706,16.858 18.762,16.816 18.818,16.771 C18.854,16.742 18.878,16.703 18.919,16.678 C20.069,15.984 22.000,14.452 22.000,11.988 C22.000,10.780 21.339,9.445 20.429,8.811 C19.976,8.496 19.863,7.873 20.180,7.421 C20.495,6.967 21.118,6.856 21.571,7.171 C23.024,8.182 24.000,10.117 24.000,11.988 C24.000,14.315 22.725,16.477 20.501,18.017 ZM9.500,15.984 L8.243,15.984 C6.631,17.748 4.495,18.005 3.467,18.005 C3.125,18.005 2.907,17.978 2.873,17.974 C2.465,17.922 2.131,17.625 2.030,17.227 C1.930,16.829 2.083,16.410 2.417,16.171 C2.444,16.150 3.248,15.507 3.498,14.021 C1.274,12.482 0.000,10.320 0.000,7.991 C0.000,3.584 4.262,-0.001 9.500,-0.001 C14.738,-0.001 19.000,3.584 19.000,7.991 C19.000,12.398 14.738,15.984 9.500,15.984 ZM9.500,1.997 C5.364,1.997 2.000,4.686 2.000,7.991 C2.000,10.457 3.930,11.988 5.079,12.682 C5.120,12.706 5.144,12.745 5.180,12.774 C5.236,12.820 5.291,12.861 5.336,12.917 C5.377,12.968 5.403,13.023 5.432,13.080 C5.462,13.137 5.494,13.190 5.512,13.252 C5.533,13.321 5.536,13.390 5.542,13.461 C5.545,13.507 5.563,13.549 5.561,13.597 C5.559,13.619 5.553,13.637 5.552,13.659 C5.550,13.672 5.548,13.685 5.546,13.699 C5.485,14.507 5.308,15.194 5.075,15.751 C5.731,15.528 6.440,15.118 7.006,14.378 C7.020,14.361 7.040,14.353 7.055,14.336 C7.101,14.282 7.156,14.241 7.213,14.198 C7.261,14.162 7.307,14.125 7.360,14.099 C7.417,14.070 7.478,14.056 7.540,14.038 C7.605,14.020 7.668,14.003 7.735,13.999 C7.758,13.997 7.778,13.986 7.801,13.986 L9.502,13.986 C13.637,13.986 17.000,11.297 17.000,7.991 C17.000,4.686 13.636,1.997 9.500,1.997 Z" class="cls-1"/>
</svg>
