<svg xmlns="http://www.w3.org/2000/svg" xmlns:xlink="http://www.w3.org/1999/xlink" preserveAspectRatio="xMidYMid" width="24" height="23.938" viewBox="0 0 24 23.938">
  <defs>
    <style>
      .cls-1 {
        fill: #1b1b1b;
        fill-rule: evenodd;
      }
    </style>
  </defs>
  <path d="M23.981,7.083 L23.981,18.950 C23.981,20.050 23.084,20.944 21.983,20.944 L17.986,20.944 C17.433,20.944 16.986,20.498 16.986,19.947 C16.986,19.396 17.433,18.950 17.986,18.950 L21.983,18.950 L21.983,6.986 C21.983,6.969 21.991,6.955 21.992,6.938 L17.000,6.938 C16.448,6.938 15.987,7.537 15.987,6.986 L15.987,1.938 L9.000,1.938 C8.448,1.938 7.993,1.555 7.993,1.004 C7.993,0.453 8.440,0.007 8.992,0.007 L16.986,0.007 C17.009,0.007 17.027,0.019 17.049,0.020 C17.139,0.026 17.226,0.043 17.311,0.073 C17.343,0.084 17.376,0.092 17.407,0.107 C17.508,0.154 17.603,0.213 17.686,0.294 C17.688,0.297 17.692,0.298 17.694,0.301 L23.580,6.172 C23.612,6.195 23.627,6.233 23.656,6.260 C23.685,6.286 23.707,6.317 23.733,6.347 C23.887,6.523 24.001,6.735 24.001,6.986 C24.001,7.021 23.984,7.049 23.981,7.083 ZM17.986,3.411 L17.986,5.989 L20.570,5.989 L17.986,3.411 ZM9.050,3.010 C9.143,3.015 9.233,3.033 9.320,3.064 C9.351,3.075 9.382,3.083 9.412,3.097 C9.513,3.144 9.609,3.204 9.692,3.285 C9.694,3.288 9.698,3.289 9.700,3.292 L15.586,9.163 C15.618,9.186 15.633,9.225 15.662,9.251 C15.691,9.277 15.713,9.308 15.739,9.338 C15.893,9.514 16.007,9.725 16.007,9.977 C16.007,10.012 15.990,10.041 15.987,10.074 L15.987,21.941 C15.987,23.041 15.090,23.935 13.989,23.935 L1.998,23.935 C0.896,23.935 -0.001,23.041 -0.001,21.941 L-0.001,4.992 C-0.001,3.893 0.896,2.998 1.998,2.998 L8.992,2.998 C9.013,2.998 9.030,3.009 9.050,3.010 ZM9.992,6.402 L9.992,8.980 L12.575,8.980 L9.992,6.402 ZM7.993,9.977 L7.993,4.938 L2.000,4.938 L1.998,21.941 L13.989,21.941 L13.989,10.938 L9.000,10.938 C8.448,10.938 7.993,10.528 7.993,9.977 Z" class="cls-1"/>
</svg>
