<svg xmlns="http://www.w3.org/2000/svg" xmlns:xlink="http://www.w3.org/1999/xlink" preserveAspectRatio="xMidYMid" width="24" height="24" viewBox="0 0 24 24">
  <defs>
    <style>
      .cls-1 {
        fill: #1b1b1b;
        fill-rule: evenodd;
      }
    </style>
  </defs>
  <path d="M23.000,21.000 L21.000,21.000 L21.000,23.000 C21.000,23.552 20.552,24.000 20.000,24.000 C19.448,24.000 19.000,23.552 19.000,23.000 L19.000,21.000 L17.000,21.000 C16.448,21.000 16.000,20.552 16.000,20.000 C16.000,19.447 16.448,19.000 17.000,19.000 L19.000,19.000 L19.000,16.999 C19.000,16.447 19.448,15.999 20.000,15.999 C20.552,15.999 21.000,16.447 21.000,16.999 L21.000,19.000 L23.000,19.000 C23.552,19.000 24.000,19.447 24.000,20.000 C24.000,20.552 23.552,21.000 23.000,21.000 ZM17.288,16.041 C17.816,16.201 18.117,16.758 17.958,17.287 C17.828,17.720 17.431,18.000 17.000,18.000 C16.905,18.000 16.809,17.986 16.712,17.957 L14.711,17.357 C14.677,17.347 14.653,17.322 14.621,17.308 C14.559,17.283 14.503,17.253 14.447,17.215 C14.389,17.176 14.340,17.134 14.292,17.085 C14.268,17.061 14.237,17.048 14.215,17.020 C14.197,16.997 14.192,16.968 14.176,16.943 C14.138,16.886 14.110,16.826 14.084,16.762 C14.061,16.703 14.041,16.647 14.029,16.585 C14.017,16.523 14.015,16.463 14.014,16.398 C14.015,16.330 14.019,16.265 14.033,16.197 C14.039,16.168 14.032,16.140 14.041,16.111 C14.051,16.078 14.075,16.054 14.088,16.022 C14.114,15.960 14.145,15.902 14.183,15.845 C14.222,15.789 14.263,15.740 14.311,15.693 C14.336,15.669 14.349,15.637 14.377,15.615 C16.974,13.556 17.000,9.830 17.000,9.793 L16.997,5.488 C16.623,3.652 14.269,1.998 12.000,1.998 C9.732,2.000 7.377,3.655 7.003,5.491 L7.000,9.794 C7.000,9.830 7.045,13.573 9.623,15.617 C9.693,15.673 9.739,15.746 9.790,15.816 C9.818,15.852 9.855,15.878 9.877,15.919 C9.877,15.919 9.877,15.919 9.878,15.919 C9.941,16.035 9.980,16.162 9.994,16.291 C10.002,16.361 9.985,16.428 9.978,16.496 C9.972,16.556 9.978,16.616 9.962,16.674 C9.926,16.799 9.867,16.918 9.785,17.022 C9.785,17.022 9.785,17.022 9.785,17.022 C9.783,17.024 9.781,17.025 9.779,17.027 C9.700,17.126 9.601,17.212 9.483,17.277 L2.000,21.391 L2.000,22.000 L15.000,22.000 C15.552,22.000 16.000,22.448 16.000,23.000 C16.000,23.552 15.552,24.000 15.000,24.000 L1.733,24.000 C0.778,24.000 0.000,23.222 0.000,22.266 L0.000,20.799 C0.000,20.435 0.199,20.099 0.518,19.923 L7.333,16.176 C5.029,13.518 5.000,9.962 5.000,9.793 L5.003,5.397 L5.018,5.227 C5.558,2.101 9.065,0.000 12.000,0.000 L12.004,0.000 C14.938,0.000 18.442,2.098 18.982,5.225 L18.997,5.395 L19.000,9.791 C19.000,9.955 18.968,13.293 16.876,15.918 L17.288,16.041 Z" class="cls-1"/>
</svg>
