<svg xmlns="http://www.w3.org/2000/svg" xmlns:xlink="http://www.w3.org/1999/xlink" preserveAspectRatio="xMidYMid" width="24" height="23.938" viewBox="0 0 24 23.938">
  <defs>
    <style>
      .cls-1 {
        fill: #1b1b1b;
        fill-rule: evenodd;
      }
    </style>
  </defs>
  <path d="M22.216,21.900 L12.196,23.913 C12.131,23.926 12.067,23.932 12.004,23.932 C12.003,23.932 12.002,23.932 12.001,23.932 C12.001,23.932 12.000,23.932 12.000,23.932 C12.000,23.932 11.999,23.932 11.999,23.932 C11.998,23.932 11.997,23.932 11.996,23.932 C11.933,23.932 11.869,23.926 11.804,23.913 L1.784,21.900 C0.784,21.699 0.000,20.739 0.000,19.714 L0.000,1.844 C0.000,1.279 0.238,0.759 0.654,0.417 C1.069,0.075 1.621,-0.059 2.177,0.053 L11.810,1.987 C11.873,1.974 11.933,1.950 12.000,1.950 C12.065,1.950 12.123,1.976 12.185,1.988 L21.824,0.053 C22.374,-0.060 22.930,0.075 23.346,0.417 C23.762,0.759 24.000,1.279 24.000,1.844 L24.000,19.714 C24.000,20.739 23.216,21.699 22.216,21.900 ZM11.000,3.871 L2.000,2.065 L2.000,19.714 C2.000,19.789 2.104,19.916 2.177,19.931 L11.000,21.704 L11.000,3.871 ZM22.000,2.065 L13.000,3.871 L13.000,21.704 L21.823,19.931 C21.896,19.916 22.000,19.789 22.000,19.714 L22.000,2.065 ZM20.196,16.885 L15.196,17.889 C15.130,17.902 15.064,17.908 14.999,17.908 C14.532,17.908 14.114,17.578 14.019,17.101 C13.911,16.558 14.262,16.029 14.804,15.920 L19.804,14.916 C20.349,14.808 20.873,15.160 20.980,15.703 C21.089,16.247 20.738,16.776 20.196,16.885 ZM20.196,11.865 L15.196,12.869 C15.130,12.882 15.064,12.888 14.999,12.888 C14.532,12.888 14.114,12.558 14.019,12.081 C13.911,11.538 14.262,11.009 14.804,10.900 L19.804,9.896 C20.349,9.786 20.873,10.140 20.980,10.683 C21.089,11.227 20.738,11.756 20.196,11.865 ZM20.196,6.845 L15.196,7.849 C15.130,7.862 15.064,7.868 14.999,7.868 C14.532,7.868 14.114,7.538 14.019,7.061 C13.911,6.518 14.262,5.989 14.804,5.880 L19.804,4.876 C20.349,4.769 20.873,5.120 20.980,5.663 C21.089,6.207 20.738,6.736 20.196,6.845 ZM4.196,4.876 L9.196,5.880 C9.738,5.989 10.089,6.518 9.981,7.061 C9.886,7.538 9.468,7.868 9.001,7.868 C8.936,7.868 8.870,7.862 8.804,7.849 L3.804,6.845 C3.262,6.736 2.911,6.207 3.019,5.663 C3.127,5.120 3.653,4.768 4.196,4.876 ZM4.196,9.896 L9.196,10.900 C9.738,11.009 10.089,11.538 9.981,12.081 C9.886,12.558 9.468,12.888 9.001,12.888 C8.936,12.888 8.870,12.882 8.804,12.869 L3.804,11.865 C3.262,11.756 2.911,11.227 3.019,10.683 C3.127,10.140 3.653,9.786 4.196,9.896 ZM4.196,14.916 L9.196,15.920 C9.738,16.029 10.089,16.558 9.981,17.101 C9.886,17.578 9.468,17.908 9.001,17.908 C8.936,17.908 8.870,17.902 8.804,17.889 L3.804,16.885 C3.262,16.776 2.911,16.247 3.019,15.703 C3.127,15.160 3.653,14.807 4.196,14.916 Z" class="cls-1"/>
</svg>
